<mxfile host="Electron" modified="2023-05-14T13:24:13.666Z" agent="Mozilla/5.0 (Windows NT 10.0; Win64; x64) AppleWebKit/537.36 (KHTML, like Gecko) draw.io/21.2.1 Chrome/112.0.5615.87 Electron/24.1.2 Safari/537.36" etag="8EO4Q93En8JaMjWJo7Zm" version="21.2.1" type="device">
  <diagram name="Page-1" id="AfvwIJZRqy7HB0U325k9">
    <mxGraphModel dx="1714" dy="1616" grid="1" gridSize="10" guides="1" tooltips="1" connect="1" arrows="1" fold="1" page="1" pageScale="1" pageWidth="850" pageHeight="1100" math="0" shadow="0">
      <root>
        <mxCell id="0" />
        <mxCell id="1" parent="0" />
        <mxCell id="QQcvoR1NB1t4eQLzPKgB-12" style="edgeStyle=orthogonalEdgeStyle;rounded=0;orthogonalLoop=1;jettySize=auto;html=1;exitX=0.75;exitY=0;exitDx=0;exitDy=0;entryX=0.5;entryY=1;entryDx=0;entryDy=0;" parent="1" source="QQcvoR1NB1t4eQLzPKgB-1" target="QQcvoR1NB1t4eQLzPKgB-7" edge="1">
          <mxGeometry relative="1" as="geometry" />
        </mxCell>
        <mxCell id="QQcvoR1NB1t4eQLzPKgB-13" style="edgeStyle=orthogonalEdgeStyle;rounded=0;orthogonalLoop=1;jettySize=auto;html=1;exitX=1;exitY=0.25;exitDx=0;exitDy=0;entryX=0;entryY=1;entryDx=0;entryDy=0;" parent="1" source="QQcvoR1NB1t4eQLzPKgB-1" target="QQcvoR1NB1t4eQLzPKgB-10" edge="1">
          <mxGeometry relative="1" as="geometry" />
        </mxCell>
        <mxCell id="QQcvoR1NB1t4eQLzPKgB-14" style="edgeStyle=orthogonalEdgeStyle;rounded=0;orthogonalLoop=1;jettySize=auto;html=1;exitX=0;exitY=0.25;exitDx=0;exitDy=0;entryX=1;entryY=1;entryDx=0;entryDy=0;" parent="1" source="QQcvoR1NB1t4eQLzPKgB-1" target="QQcvoR1NB1t4eQLzPKgB-9" edge="1">
          <mxGeometry relative="1" as="geometry" />
        </mxCell>
        <mxCell id="QQcvoR1NB1t4eQLzPKgB-15" style="edgeStyle=orthogonalEdgeStyle;rounded=0;orthogonalLoop=1;jettySize=auto;html=1;exitX=0;exitY=0.75;exitDx=0;exitDy=0;entryX=1;entryY=0.5;entryDx=0;entryDy=0;" parent="1" source="QQcvoR1NB1t4eQLzPKgB-1" target="QQcvoR1NB1t4eQLzPKgB-8" edge="1">
          <mxGeometry relative="1" as="geometry" />
        </mxCell>
        <mxCell id="QQcvoR1NB1t4eQLzPKgB-65" style="edgeStyle=orthogonalEdgeStyle;rounded=0;orthogonalLoop=1;jettySize=auto;html=1;exitX=0.25;exitY=1;exitDx=0;exitDy=0;entryX=0.5;entryY=0;entryDx=0;entryDy=0;" parent="1" source="QQcvoR1NB1t4eQLzPKgB-1" target="QQcvoR1NB1t4eQLzPKgB-64" edge="1">
          <mxGeometry relative="1" as="geometry" />
        </mxCell>
        <mxCell id="QQcvoR1NB1t4eQLzPKgB-69" style="edgeStyle=orthogonalEdgeStyle;rounded=0;orthogonalLoop=1;jettySize=auto;html=1;exitX=1;exitY=0.5;exitDx=0;exitDy=0;entryX=0;entryY=0.5;entryDx=0;entryDy=0;" parent="1" source="QQcvoR1NB1t4eQLzPKgB-1" target="QQcvoR1NB1t4eQLzPKgB-68" edge="1">
          <mxGeometry relative="1" as="geometry" />
        </mxCell>
        <mxCell id="QQcvoR1NB1t4eQLzPKgB-85" style="edgeStyle=orthogonalEdgeStyle;rounded=0;orthogonalLoop=1;jettySize=auto;html=1;exitX=0.75;exitY=1;exitDx=0;exitDy=0;" parent="1" source="QQcvoR1NB1t4eQLzPKgB-1" target="QQcvoR1NB1t4eQLzPKgB-79" edge="1">
          <mxGeometry relative="1" as="geometry" />
        </mxCell>
        <mxCell id="WX6nFHb2K4Oms33YcOjG-88" style="edgeStyle=orthogonalEdgeStyle;rounded=0;orthogonalLoop=1;jettySize=auto;html=1;exitX=0.25;exitY=0;exitDx=0;exitDy=0;entryX=0.5;entryY=1;entryDx=0;entryDy=0;" parent="1" source="QQcvoR1NB1t4eQLzPKgB-1" target="QQcvoR1NB1t4eQLzPKgB-6" edge="1">
          <mxGeometry relative="1" as="geometry" />
        </mxCell>
        <mxCell id="WX6nFHb2K4Oms33YcOjG-117" style="edgeStyle=orthogonalEdgeStyle;rounded=0;orthogonalLoop=1;jettySize=auto;html=1;exitX=1;exitY=0.5;exitDx=0;exitDy=0;entryX=0;entryY=0.5;entryDx=0;entryDy=0;" parent="1" source="QQcvoR1NB1t4eQLzPKgB-1" target="WX6nFHb2K4Oms33YcOjG-116" edge="1">
          <mxGeometry relative="1" as="geometry">
            <mxPoint x="260" y="-150" as="targetPoint" />
            <Array as="points">
              <mxPoint x="260" y="70" />
              <mxPoint x="260" y="-139" />
            </Array>
          </mxGeometry>
        </mxCell>
        <mxCell id="nGkiocJGrpNyFu5htgxb-16" style="edgeStyle=orthogonalEdgeStyle;rounded=0;orthogonalLoop=1;jettySize=auto;html=1;exitX=0;exitY=1;exitDx=0;exitDy=0;entryX=1;entryY=0.5;entryDx=0;entryDy=0;" edge="1" parent="1" source="QQcvoR1NB1t4eQLzPKgB-1" target="nGkiocJGrpNyFu5htgxb-15">
          <mxGeometry relative="1" as="geometry" />
        </mxCell>
        <mxCell id="nGkiocJGrpNyFu5htgxb-23" style="edgeStyle=orthogonalEdgeStyle;rounded=0;orthogonalLoop=1;jettySize=auto;html=1;exitX=1;exitY=1;exitDx=0;exitDy=0;entryX=0;entryY=0;entryDx=0;entryDy=0;" edge="1" parent="1" source="QQcvoR1NB1t4eQLzPKgB-1" target="nGkiocJGrpNyFu5htgxb-22">
          <mxGeometry relative="1" as="geometry" />
        </mxCell>
        <mxCell id="QQcvoR1NB1t4eQLzPKgB-1" value="Donor" style="rounded=1;whiteSpace=wrap;html=1;fillColor=#FF6666;strokeColor=#23445d;" parent="1" vertex="1">
          <mxGeometry x="60" y="49" width="120" height="40" as="geometry" />
        </mxCell>
        <mxCell id="QQcvoR1NB1t4eQLzPKgB-59" style="edgeStyle=orthogonalEdgeStyle;rounded=0;orthogonalLoop=1;jettySize=auto;html=1;exitX=0.25;exitY=0;exitDx=0;exitDy=0;entryX=0.5;entryY=1;entryDx=0;entryDy=0;" parent="1" source="QQcvoR1NB1t4eQLzPKgB-2" target="QQcvoR1NB1t4eQLzPKgB-56" edge="1">
          <mxGeometry relative="1" as="geometry" />
        </mxCell>
        <mxCell id="QQcvoR1NB1t4eQLzPKgB-60" style="edgeStyle=orthogonalEdgeStyle;rounded=0;orthogonalLoop=1;jettySize=auto;html=1;exitX=0.75;exitY=0;exitDx=0;exitDy=0;entryX=0.288;entryY=0.975;entryDx=0;entryDy=0;entryPerimeter=0;" parent="1" source="QQcvoR1NB1t4eQLzPKgB-2" target="QQcvoR1NB1t4eQLzPKgB-58" edge="1">
          <mxGeometry relative="1" as="geometry" />
        </mxCell>
        <mxCell id="QQcvoR1NB1t4eQLzPKgB-71" style="edgeStyle=orthogonalEdgeStyle;rounded=0;orthogonalLoop=1;jettySize=auto;html=1;exitX=0;exitY=0.5;exitDx=0;exitDy=0;entryX=1;entryY=0.5;entryDx=0;entryDy=0;" parent="1" source="QQcvoR1NB1t4eQLzPKgB-2" target="QQcvoR1NB1t4eQLzPKgB-68" edge="1">
          <mxGeometry relative="1" as="geometry" />
        </mxCell>
        <mxCell id="QQcvoR1NB1t4eQLzPKgB-73" style="edgeStyle=orthogonalEdgeStyle;rounded=0;orthogonalLoop=1;jettySize=auto;html=1;exitX=0.5;exitY=1;exitDx=0;exitDy=0;" parent="1" source="QQcvoR1NB1t4eQLzPKgB-2" target="QQcvoR1NB1t4eQLzPKgB-72" edge="1">
          <mxGeometry relative="1" as="geometry" />
        </mxCell>
        <mxCell id="WX6nFHb2K4Oms33YcOjG-93" style="edgeStyle=orthogonalEdgeStyle;rounded=0;orthogonalLoop=1;jettySize=auto;html=1;exitX=1;exitY=0.25;exitDx=0;exitDy=0;entryX=0;entryY=1;entryDx=0;entryDy=0;" parent="1" source="QQcvoR1NB1t4eQLzPKgB-2" target="QQcvoR1NB1t4eQLzPKgB-57" edge="1">
          <mxGeometry relative="1" as="geometry" />
        </mxCell>
        <mxCell id="nGkiocJGrpNyFu5htgxb-54" style="edgeStyle=orthogonalEdgeStyle;rounded=0;orthogonalLoop=1;jettySize=auto;html=1;exitX=0.75;exitY=1;exitDx=0;exitDy=0;entryX=0;entryY=0.5;entryDx=0;entryDy=0;" edge="1" parent="1" source="QQcvoR1NB1t4eQLzPKgB-2" target="nGkiocJGrpNyFu5htgxb-52">
          <mxGeometry relative="1" as="geometry" />
        </mxCell>
        <mxCell id="QQcvoR1NB1t4eQLzPKgB-2" value="Blood" style="rounded=1;whiteSpace=wrap;html=1;fillColor=#FF6666;strokeColor=#23445d;" parent="1" vertex="1">
          <mxGeometry x="460" y="45" width="120" height="35" as="geometry" />
        </mxCell>
        <mxCell id="QQcvoR1NB1t4eQLzPKgB-26" style="edgeStyle=orthogonalEdgeStyle;rounded=0;orthogonalLoop=1;jettySize=auto;html=1;exitX=0;exitY=0.5;exitDx=0;exitDy=0;entryX=0.988;entryY=0.775;entryDx=0;entryDy=0;entryPerimeter=0;" parent="1" source="QQcvoR1NB1t4eQLzPKgB-3" target="QQcvoR1NB1t4eQLzPKgB-21" edge="1">
          <mxGeometry relative="1" as="geometry" />
        </mxCell>
        <mxCell id="QQcvoR1NB1t4eQLzPKgB-27" style="edgeStyle=orthogonalEdgeStyle;rounded=0;orthogonalLoop=1;jettySize=auto;html=1;exitX=0.25;exitY=1;exitDx=0;exitDy=0;entryX=0.65;entryY=0.025;entryDx=0;entryDy=0;entryPerimeter=0;" parent="1" source="QQcvoR1NB1t4eQLzPKgB-3" target="QQcvoR1NB1t4eQLzPKgB-24" edge="1">
          <mxGeometry relative="1" as="geometry" />
        </mxCell>
        <mxCell id="QQcvoR1NB1t4eQLzPKgB-28" style="edgeStyle=orthogonalEdgeStyle;rounded=0;orthogonalLoop=1;jettySize=auto;html=1;exitX=0.75;exitY=1;exitDx=0;exitDy=0;" parent="1" source="QQcvoR1NB1t4eQLzPKgB-3" target="QQcvoR1NB1t4eQLzPKgB-25" edge="1">
          <mxGeometry relative="1" as="geometry" />
        </mxCell>
        <mxCell id="QQcvoR1NB1t4eQLzPKgB-66" style="edgeStyle=orthogonalEdgeStyle;rounded=0;orthogonalLoop=1;jettySize=auto;html=1;exitX=0.25;exitY=0;exitDx=0;exitDy=0;" parent="1" source="QQcvoR1NB1t4eQLzPKgB-3" target="QQcvoR1NB1t4eQLzPKgB-64" edge="1">
          <mxGeometry relative="1" as="geometry" />
        </mxCell>
        <mxCell id="QQcvoR1NB1t4eQLzPKgB-77" style="edgeStyle=orthogonalEdgeStyle;rounded=0;orthogonalLoop=1;jettySize=auto;html=1;exitX=0.75;exitY=0;exitDx=0;exitDy=0;entryX=0;entryY=0.5;entryDx=0;entryDy=0;" parent="1" source="QQcvoR1NB1t4eQLzPKgB-3" target="QQcvoR1NB1t4eQLzPKgB-75" edge="1">
          <mxGeometry relative="1" as="geometry" />
        </mxCell>
        <mxCell id="nGkiocJGrpNyFu5htgxb-46" style="edgeStyle=orthogonalEdgeStyle;rounded=0;orthogonalLoop=1;jettySize=auto;html=1;exitX=1;exitY=0.25;exitDx=0;exitDy=0;entryX=0.5;entryY=0;entryDx=0;entryDy=0;" edge="1" parent="1" source="QQcvoR1NB1t4eQLzPKgB-3" target="nGkiocJGrpNyFu5htgxb-38">
          <mxGeometry relative="1" as="geometry" />
        </mxCell>
        <mxCell id="QQcvoR1NB1t4eQLzPKgB-3" value="Receptionist" style="rounded=1;whiteSpace=wrap;html=1;fillColor=#FF6666;strokeColor=#23445d;" parent="1" vertex="1">
          <mxGeometry x="50" y="460" width="120" height="40" as="geometry" />
        </mxCell>
        <mxCell id="QQcvoR1NB1t4eQLzPKgB-47" style="edgeStyle=orthogonalEdgeStyle;rounded=0;orthogonalLoop=1;jettySize=auto;html=1;exitX=1;exitY=0.5;exitDx=0;exitDy=0;entryX=0;entryY=0.5;entryDx=0;entryDy=0;" parent="1" source="QQcvoR1NB1t4eQLzPKgB-4" target="QQcvoR1NB1t4eQLzPKgB-46" edge="1">
          <mxGeometry relative="1" as="geometry" />
        </mxCell>
        <mxCell id="QQcvoR1NB1t4eQLzPKgB-81" style="edgeStyle=orthogonalEdgeStyle;rounded=0;orthogonalLoop=1;jettySize=auto;html=1;exitX=1;exitY=1;exitDx=0;exitDy=0;" parent="1" source="QQcvoR1NB1t4eQLzPKgB-4" target="QQcvoR1NB1t4eQLzPKgB-45" edge="1">
          <mxGeometry relative="1" as="geometry" />
        </mxCell>
        <mxCell id="QQcvoR1NB1t4eQLzPKgB-82" style="edgeStyle=orthogonalEdgeStyle;rounded=0;orthogonalLoop=1;jettySize=auto;html=1;exitX=0.75;exitY=1;exitDx=0;exitDy=0;entryX=0.638;entryY=0.025;entryDx=0;entryDy=0;entryPerimeter=0;" parent="1" source="QQcvoR1NB1t4eQLzPKgB-4" target="QQcvoR1NB1t4eQLzPKgB-49" edge="1">
          <mxGeometry relative="1" as="geometry" />
        </mxCell>
        <mxCell id="QQcvoR1NB1t4eQLzPKgB-83" style="edgeStyle=orthogonalEdgeStyle;rounded=0;orthogonalLoop=1;jettySize=auto;html=1;exitX=0.25;exitY=1;exitDx=0;exitDy=0;entryX=0.667;entryY=0;entryDx=0;entryDy=0;entryPerimeter=0;" parent="1" source="QQcvoR1NB1t4eQLzPKgB-4" target="QQcvoR1NB1t4eQLzPKgB-51" edge="1">
          <mxGeometry relative="1" as="geometry" />
        </mxCell>
        <mxCell id="QQcvoR1NB1t4eQLzPKgB-84" style="edgeStyle=orthogonalEdgeStyle;rounded=0;orthogonalLoop=1;jettySize=auto;html=1;exitX=0;exitY=0.75;exitDx=0;exitDy=0;entryX=1;entryY=0;entryDx=0;entryDy=0;" parent="1" source="QQcvoR1NB1t4eQLzPKgB-4" target="QQcvoR1NB1t4eQLzPKgB-54" edge="1">
          <mxGeometry relative="1" as="geometry" />
        </mxCell>
        <mxCell id="QQcvoR1NB1t4eQLzPKgB-87" style="edgeStyle=orthogonalEdgeStyle;rounded=0;orthogonalLoop=1;jettySize=auto;html=1;exitX=0;exitY=0.25;exitDx=0;exitDy=0;entryX=0.5;entryY=1;entryDx=0;entryDy=0;shape=link;" parent="1" source="QQcvoR1NB1t4eQLzPKgB-4" target="QQcvoR1NB1t4eQLzPKgB-79" edge="1">
          <mxGeometry relative="1" as="geometry" />
        </mxCell>
        <mxCell id="WX6nFHb2K4Oms33YcOjG-3" style="edgeStyle=orthogonalEdgeStyle;rounded=0;orthogonalLoop=1;jettySize=auto;html=1;exitX=0.75;exitY=0;exitDx=0;exitDy=0;entryX=0.5;entryY=1;entryDx=0;entryDy=0;" parent="1" source="QQcvoR1NB1t4eQLzPKgB-4" target="QQcvoR1NB1t4eQLzPKgB-40" edge="1">
          <mxGeometry relative="1" as="geometry" />
        </mxCell>
        <mxCell id="QQcvoR1NB1t4eQLzPKgB-4" value="Donor Medical History" style="rounded=1;whiteSpace=wrap;html=1;fillColor=#FF6666;strokeColor=#23445d;" parent="1" vertex="1">
          <mxGeometry x="230" y="245" width="120" height="40" as="geometry" />
        </mxCell>
        <mxCell id="QQcvoR1NB1t4eQLzPKgB-29" style="edgeStyle=orthogonalEdgeStyle;rounded=0;orthogonalLoop=1;jettySize=auto;html=1;exitX=0.25;exitY=1;exitDx=0;exitDy=0;" parent="1" source="QQcvoR1NB1t4eQLzPKgB-5" edge="1">
          <mxGeometry relative="1" as="geometry">
            <mxPoint x="440" y="540" as="targetPoint" />
          </mxGeometry>
        </mxCell>
        <mxCell id="QQcvoR1NB1t4eQLzPKgB-32" style="edgeStyle=orthogonalEdgeStyle;rounded=0;orthogonalLoop=1;jettySize=auto;html=1;exitX=0.75;exitY=1;exitDx=0;exitDy=0;" parent="1" source="QQcvoR1NB1t4eQLzPKgB-5" edge="1">
          <mxGeometry relative="1" as="geometry">
            <mxPoint x="520" y="540" as="targetPoint" />
          </mxGeometry>
        </mxCell>
        <mxCell id="QQcvoR1NB1t4eQLzPKgB-37" style="edgeStyle=orthogonalEdgeStyle;rounded=0;orthogonalLoop=1;jettySize=auto;html=1;exitX=1;exitY=0.75;exitDx=0;exitDy=0;" parent="1" source="QQcvoR1NB1t4eQLzPKgB-5" target="QQcvoR1NB1t4eQLzPKgB-35" edge="1">
          <mxGeometry relative="1" as="geometry" />
        </mxCell>
        <mxCell id="QQcvoR1NB1t4eQLzPKgB-38" style="edgeStyle=orthogonalEdgeStyle;rounded=0;orthogonalLoop=1;jettySize=auto;html=1;exitX=1;exitY=0.25;exitDx=0;exitDy=0;entryX=0;entryY=0.5;entryDx=0;entryDy=0;" parent="1" source="QQcvoR1NB1t4eQLzPKgB-5" target="QQcvoR1NB1t4eQLzPKgB-34" edge="1">
          <mxGeometry relative="1" as="geometry" />
        </mxCell>
        <mxCell id="QQcvoR1NB1t4eQLzPKgB-74" style="edgeStyle=orthogonalEdgeStyle;rounded=0;orthogonalLoop=1;jettySize=auto;html=1;exitX=0.75;exitY=0;exitDx=0;exitDy=0;entryX=0.5;entryY=1;entryDx=0;entryDy=0;" parent="1" source="QQcvoR1NB1t4eQLzPKgB-5" target="QQcvoR1NB1t4eQLzPKgB-72" edge="1">
          <mxGeometry relative="1" as="geometry" />
        </mxCell>
        <mxCell id="QQcvoR1NB1t4eQLzPKgB-78" style="edgeStyle=orthogonalEdgeStyle;rounded=0;orthogonalLoop=1;jettySize=auto;html=1;exitX=0.25;exitY=0;exitDx=0;exitDy=0;entryX=1;entryY=0.5;entryDx=0;entryDy=0;" parent="1" source="QQcvoR1NB1t4eQLzPKgB-5" target="QQcvoR1NB1t4eQLzPKgB-75" edge="1">
          <mxGeometry relative="1" as="geometry" />
        </mxCell>
        <mxCell id="QQcvoR1NB1t4eQLzPKgB-92" style="edgeStyle=orthogonalEdgeStyle;rounded=0;orthogonalLoop=1;jettySize=auto;html=1;exitX=0;exitY=0.5;exitDx=0;exitDy=0;entryX=1;entryY=0.5;entryDx=0;entryDy=0;" parent="1" source="QQcvoR1NB1t4eQLzPKgB-5" target="QQcvoR1NB1t4eQLzPKgB-91" edge="1">
          <mxGeometry relative="1" as="geometry" />
        </mxCell>
        <mxCell id="WX6nFHb2K4Oms33YcOjG-128" style="edgeStyle=orthogonalEdgeStyle;rounded=0;orthogonalLoop=1;jettySize=auto;html=1;exitX=1;exitY=0;exitDx=0;exitDy=0;entryX=0;entryY=0.5;entryDx=0;entryDy=0;" parent="1" source="QQcvoR1NB1t4eQLzPKgB-5" target="WX6nFHb2K4Oms33YcOjG-126" edge="1">
          <mxGeometry relative="1" as="geometry" />
        </mxCell>
        <mxCell id="QQcvoR1NB1t4eQLzPKgB-5" value="Blood Bank" style="rounded=1;whiteSpace=wrap;html=1;fillColor=#FF6666;strokeColor=#23445d;" parent="1" vertex="1">
          <mxGeometry x="420" y="460" width="120" height="40" as="geometry" />
        </mxCell>
        <mxCell id="WX6nFHb2K4Oms33YcOjG-91" style="edgeStyle=orthogonalEdgeStyle;rounded=0;orthogonalLoop=1;jettySize=auto;html=1;exitX=0.5;exitY=0;exitDx=0;exitDy=0;" parent="1" source="QQcvoR1NB1t4eQLzPKgB-6" target="WX6nFHb2K4Oms33YcOjG-89" edge="1">
          <mxGeometry relative="1" as="geometry" />
        </mxCell>
        <mxCell id="WX6nFHb2K4Oms33YcOjG-92" style="edgeStyle=orthogonalEdgeStyle;rounded=0;orthogonalLoop=1;jettySize=auto;html=1;exitX=1;exitY=0;exitDx=0;exitDy=0;" parent="1" source="QQcvoR1NB1t4eQLzPKgB-6" target="WX6nFHb2K4Oms33YcOjG-90" edge="1">
          <mxGeometry relative="1" as="geometry" />
        </mxCell>
        <mxCell id="QQcvoR1NB1t4eQLzPKgB-6" value="contact-Number" style="ellipse;whiteSpace=wrap;html=1;fillColor=#FF9999;fontColor=#ffffff;strokeColor=#432D57;" parent="1" vertex="1">
          <mxGeometry x="40" y="-30" width="80" height="40" as="geometry" />
        </mxCell>
        <mxCell id="QQcvoR1NB1t4eQLzPKgB-7" value="Gender" style="ellipse;whiteSpace=wrap;html=1;fillColor=#FF9999;fontColor=#ffffff;strokeColor=#432D57;" parent="1" vertex="1">
          <mxGeometry x="130" y="-40" width="60" height="30" as="geometry" />
        </mxCell>
        <mxCell id="QQcvoR1NB1t4eQLzPKgB-8" value="Donor-ID" style="ellipse;whiteSpace=wrap;html=1;fillColor=#FF9999;fontColor=#ffffff;strokeColor=#432D57;fontStyle=4" parent="1" vertex="1">
          <mxGeometry x="-60" y="70" width="80" height="40" as="geometry" />
        </mxCell>
        <mxCell id="QQcvoR1NB1t4eQLzPKgB-19" style="edgeStyle=orthogonalEdgeStyle;rounded=0;orthogonalLoop=1;jettySize=auto;html=1;exitX=0.5;exitY=0;exitDx=0;exitDy=0;entryX=0.65;entryY=0.975;entryDx=0;entryDy=0;entryPerimeter=0;" parent="1" source="QQcvoR1NB1t4eQLzPKgB-9" target="QQcvoR1NB1t4eQLzPKgB-16" edge="1">
          <mxGeometry relative="1" as="geometry" />
        </mxCell>
        <mxCell id="QQcvoR1NB1t4eQLzPKgB-20" style="edgeStyle=orthogonalEdgeStyle;rounded=0;orthogonalLoop=1;jettySize=auto;html=1;exitX=0;exitY=0;exitDx=0;exitDy=0;" parent="1" source="QQcvoR1NB1t4eQLzPKgB-9" target="QQcvoR1NB1t4eQLzPKgB-17" edge="1">
          <mxGeometry relative="1" as="geometry" />
        </mxCell>
        <mxCell id="QQcvoR1NB1t4eQLzPKgB-9" value="Donor-Name" style="ellipse;whiteSpace=wrap;html=1;fillColor=#FF9999;fontColor=#ffffff;strokeColor=#432D57;" parent="1" vertex="1">
          <mxGeometry x="-50" y="15" width="80" height="40" as="geometry" />
        </mxCell>
        <mxCell id="QQcvoR1NB1t4eQLzPKgB-10" value="D-O-B" style="ellipse;whiteSpace=wrap;html=1;fillColor=#FF9999;fontColor=#ffffff;strokeColor=#432D57;" parent="1" vertex="1">
          <mxGeometry x="190" y="-10" width="60" height="30" as="geometry" />
        </mxCell>
        <mxCell id="QQcvoR1NB1t4eQLzPKgB-16" value="L-name" style="ellipse;whiteSpace=wrap;html=1;fillColor=#FFE6CC;fontColor=#000000;strokeColor=#BD7000;" parent="1" vertex="1">
          <mxGeometry x="-10" y="-50" width="50" height="30" as="geometry" />
        </mxCell>
        <mxCell id="QQcvoR1NB1t4eQLzPKgB-17" value="F-name" style="ellipse;whiteSpace=wrap;html=1;fillColor=#FFE6CC;fontColor=#000000;strokeColor=#BD7000;" parent="1" vertex="1">
          <mxGeometry x="-99" y="-50" width="60" height="30" as="geometry" />
        </mxCell>
        <mxCell id="QQcvoR1NB1t4eQLzPKgB-21" value="Emp-ID" style="ellipse;whiteSpace=wrap;html=1;fillColor=#FF9999;fontColor=#ffffff;strokeColor=#432D57;fontStyle=4" parent="1" vertex="1">
          <mxGeometry x="-80" y="459" width="80" height="40" as="geometry" />
        </mxCell>
        <mxCell id="QQcvoR1NB1t4eQLzPKgB-24" value="Emp-Name" style="ellipse;whiteSpace=wrap;html=1;fillColor=#FF9999;fontColor=#ffffff;strokeColor=#432D57;" parent="1" vertex="1">
          <mxGeometry y="540" width="80" height="40" as="geometry" />
        </mxCell>
        <mxCell id="nGkiocJGrpNyFu5htgxb-36" style="edgeStyle=orthogonalEdgeStyle;rounded=0;orthogonalLoop=1;jettySize=auto;html=1;exitX=0;exitY=1;exitDx=0;exitDy=0;" edge="1" parent="1" source="QQcvoR1NB1t4eQLzPKgB-25" target="nGkiocJGrpNyFu5htgxb-33">
          <mxGeometry relative="1" as="geometry" />
        </mxCell>
        <mxCell id="nGkiocJGrpNyFu5htgxb-37" style="edgeStyle=orthogonalEdgeStyle;rounded=0;orthogonalLoop=1;jettySize=auto;html=1;exitX=1;exitY=1;exitDx=0;exitDy=0;" edge="1" parent="1" source="QQcvoR1NB1t4eQLzPKgB-25" target="nGkiocJGrpNyFu5htgxb-34">
          <mxGeometry relative="1" as="geometry" />
        </mxCell>
        <mxCell id="QQcvoR1NB1t4eQLzPKgB-25" value="Contact-Number" style="ellipse;whiteSpace=wrap;html=1;fillColor=#FF9999;fontColor=#ffffff;strokeColor=#432D57;" parent="1" vertex="1">
          <mxGeometry x="110" y="540" width="80" height="40" as="geometry" />
        </mxCell>
        <mxCell id="QQcvoR1NB1t4eQLzPKgB-30" value="Issues" style="ellipse;whiteSpace=wrap;html=1;fillColor=#FF9999;fontColor=#ffffff;strokeColor=#432D57;" parent="1" vertex="1">
          <mxGeometry x="490" y="540" width="80" height="40" as="geometry" />
        </mxCell>
        <mxCell id="QQcvoR1NB1t4eQLzPKgB-31" value="Blood Type" style="ellipse;whiteSpace=wrap;html=1;fillColor=#FF9999;fontColor=#ffffff;strokeColor=#432D57;" parent="1" vertex="1">
          <mxGeometry x="400" y="540" width="80" height="40" as="geometry" />
        </mxCell>
        <mxCell id="QQcvoR1NB1t4eQLzPKgB-34" value="Blood-Test" style="ellipse;whiteSpace=wrap;html=1;fillColor=#FF9999;fontColor=#ffffff;strokeColor=#432D57;" parent="1" vertex="1">
          <mxGeometry x="580" y="420" width="80" height="40" as="geometry" />
        </mxCell>
        <mxCell id="QQcvoR1NB1t4eQLzPKgB-35" value="orders" style="ellipse;whiteSpace=wrap;html=1;fillColor=#FF9999;fontColor=#ffffff;strokeColor=#432D57;" parent="1" vertex="1">
          <mxGeometry x="570" y="480" width="80" height="40" as="geometry" />
        </mxCell>
        <mxCell id="QQcvoR1NB1t4eQLzPKgB-40" value="pulse" style="ellipse;whiteSpace=wrap;html=1;fillColor=#FF9999;fontColor=#ffffff;strokeColor=#432D57;" parent="1" vertex="1">
          <mxGeometry x="250" y="165" width="80" height="40" as="geometry" />
        </mxCell>
        <mxCell id="QQcvoR1NB1t4eQLzPKgB-45" value="Temperature" style="ellipse;whiteSpace=wrap;html=1;fillColor=#FF9999;fontColor=#ffffff;strokeColor=#432D57;" parent="1" vertex="1">
          <mxGeometry x="380" y="285" width="80" height="40" as="geometry" />
        </mxCell>
        <mxCell id="QQcvoR1NB1t4eQLzPKgB-46" value="Blood Pressure" style="ellipse;whiteSpace=wrap;html=1;fillColor=#FF9999;fontColor=#ffffff;strokeColor=#432D57;" parent="1" vertex="1">
          <mxGeometry x="380" y="205" width="80" height="40" as="geometry" />
        </mxCell>
        <mxCell id="QQcvoR1NB1t4eQLzPKgB-49" value="Drugs" style="ellipse;whiteSpace=wrap;html=1;fillColor=#FF9999;fontColor=#ffffff;strokeColor=#432D57;" parent="1" vertex="1">
          <mxGeometry x="280" y="320" width="80" height="40" as="geometry" />
        </mxCell>
        <mxCell id="QQcvoR1NB1t4eQLzPKgB-51" value="Travel" style="ellipse;whiteSpace=wrap;html=1;fillColor=#FF9999;fontColor=#ffffff;strokeColor=#432D57;" parent="1" vertex="1">
          <mxGeometry x="210" y="310" width="60" height="30" as="geometry" />
        </mxCell>
        <mxCell id="QQcvoR1NB1t4eQLzPKgB-54" value="Health history" style="ellipse;whiteSpace=wrap;html=1;fillColor=#FF9999;fontColor=#ffffff;strokeColor=#432D57;" parent="1" vertex="1">
          <mxGeometry x="130" y="280" width="80" height="40" as="geometry" />
        </mxCell>
        <mxCell id="QQcvoR1NB1t4eQLzPKgB-56" value="Blood-ID" style="ellipse;whiteSpace=wrap;html=1;fillColor=#FF9999;fontColor=#ffffff;strokeColor=#432D57;fontStyle=4" parent="1" vertex="1">
          <mxGeometry x="400" y="-30" width="80" height="40" as="geometry" />
        </mxCell>
        <mxCell id="QQcvoR1NB1t4eQLzPKgB-57" value="cost" style="ellipse;whiteSpace=wrap;html=1;fillColor=#FF9999;strokeColor=#432D57;fontColor=#ffffff;" parent="1" vertex="1">
          <mxGeometry x="610" y="30" width="70" height="30" as="geometry" />
        </mxCell>
        <mxCell id="QQcvoR1NB1t4eQLzPKgB-58" value="Blood Type" style="ellipse;whiteSpace=wrap;html=1;fillColor=#FF9999;fontColor=#ffffff;strokeColor=#432D57;" parent="1" vertex="1">
          <mxGeometry x="520" y="-20" width="80" height="40" as="geometry" />
        </mxCell>
        <mxCell id="QQcvoR1NB1t4eQLzPKgB-64" value="Register" style="rhombus;whiteSpace=wrap;html=1;fillColor=#B3B3B3;strokeColor=#005700;fontColor=#ffffff;" parent="1" vertex="1">
          <mxGeometry x="-10" y="230" width="80" height="70" as="geometry" />
        </mxCell>
        <mxCell id="QQcvoR1NB1t4eQLzPKgB-68" value="Donates" style="rhombus;whiteSpace=wrap;html=1;fillColor=#B3B3B3;fontColor=#ffffff;strokeColor=#005700;" parent="1" vertex="1">
          <mxGeometry x="290" y="35" width="80" height="70" as="geometry" />
        </mxCell>
        <mxCell id="QQcvoR1NB1t4eQLzPKgB-72" value="Stored" style="rhombus;whiteSpace=wrap;html=1;fillColor=#B3B3B3;fontColor=#ffffff;strokeColor=#005700;" parent="1" vertex="1">
          <mxGeometry x="480" y="210" width="80" height="70" as="geometry" />
        </mxCell>
        <mxCell id="QQcvoR1NB1t4eQLzPKgB-75" value="Employed by" style="rhombus;whiteSpace=wrap;html=1;fillColor=#B3B3B3;fontColor=#ffffff;strokeColor=#005700;" parent="1" vertex="1">
          <mxGeometry x="240" y="380" width="90" height="70" as="geometry" />
        </mxCell>
        <mxCell id="QQcvoR1NB1t4eQLzPKgB-79" value="has" style="rhombus;whiteSpace=wrap;html=1;fillColor=#B3B3B3;fontColor=#ffffff;strokeColor=#005700;" parent="1" vertex="1">
          <mxGeometry x="120" y="150" width="80" height="70" as="geometry" />
        </mxCell>
        <mxCell id="QQcvoR1NB1t4eQLzPKgB-80" style="edgeStyle=orthogonalEdgeStyle;rounded=0;orthogonalLoop=1;jettySize=auto;html=1;exitX=0.5;exitY=1;exitDx=0;exitDy=0;" parent="1" edge="1">
          <mxGeometry relative="1" as="geometry">
            <mxPoint x="270" y="190" as="sourcePoint" />
            <mxPoint x="270" y="190" as="targetPoint" />
          </mxGeometry>
        </mxCell>
        <mxCell id="QQcvoR1NB1t4eQLzPKgB-91" value="BloodBank-ID" style="ellipse;whiteSpace=wrap;html=1;fillColor=#FF9999;fontColor=#ffffff;strokeColor=#432D57;fontStyle=4" parent="1" vertex="1">
          <mxGeometry x="320" y="440" width="80" height="40" as="geometry" />
        </mxCell>
        <mxCell id="QQcvoR1NB1t4eQLzPKgB-93" value="M" style="rounded=0;whiteSpace=wrap;html=1;fillColor=none;strokeColor=none;" parent="1" vertex="1">
          <mxGeometry x="360" y="35" width="60" height="40" as="geometry" />
        </mxCell>
        <mxCell id="QQcvoR1NB1t4eQLzPKgB-94" value="1" style="rounded=0;whiteSpace=wrap;html=1;fillColor=none;strokeColor=none;" parent="1" vertex="1">
          <mxGeometry x="240" y="35" width="60" height="40" as="geometry" />
        </mxCell>
        <mxCell id="QQcvoR1NB1t4eQLzPKgB-95" value="1" style="rounded=0;whiteSpace=wrap;html=1;fillColor=none;strokeColor=none;" parent="1" vertex="1">
          <mxGeometry x="120" y="205" width="50" height="40" as="geometry" />
        </mxCell>
        <mxCell id="QQcvoR1NB1t4eQLzPKgB-96" value="1" style="rounded=0;whiteSpace=wrap;html=1;fillColor=none;strokeColor=none;" parent="1" vertex="1">
          <mxGeometry x="120" y="120" width="60" height="40" as="geometry" />
        </mxCell>
        <mxCell id="QQcvoR1NB1t4eQLzPKgB-97" value="1" style="rounded=0;whiteSpace=wrap;html=1;fillColor=none;strokeColor=none;" parent="1" vertex="1">
          <mxGeometry x="-20" y="290" width="60" height="40" as="geometry" />
        </mxCell>
        <mxCell id="QQcvoR1NB1t4eQLzPKgB-98" value="M" style="rounded=0;whiteSpace=wrap;html=1;fillColor=none;strokeColor=none;" parent="1" vertex="1">
          <mxGeometry x="-20" y="190" width="60" height="40" as="geometry" />
        </mxCell>
        <mxCell id="QQcvoR1NB1t4eQLzPKgB-99" value="1" style="rounded=0;whiteSpace=wrap;html=1;fillColor=none;strokeColor=none;" parent="1" vertex="1">
          <mxGeometry x="480" y="280" width="60" height="40" as="geometry" />
        </mxCell>
        <mxCell id="QQcvoR1NB1t4eQLzPKgB-100" value="M" style="rounded=0;whiteSpace=wrap;html=1;fillColor=none;strokeColor=none;" parent="1" vertex="1">
          <mxGeometry x="470" y="165" width="60" height="40" as="geometry" />
        </mxCell>
        <mxCell id="QQcvoR1NB1t4eQLzPKgB-101" value="1" style="rounded=0;whiteSpace=wrap;html=1;fillColor=none;strokeColor=none;" parent="1" vertex="1">
          <mxGeometry x="330" y="370" width="60" height="40" as="geometry" />
        </mxCell>
        <mxCell id="QQcvoR1NB1t4eQLzPKgB-102" value="1" style="rounded=0;whiteSpace=wrap;html=1;fillColor=none;strokeColor=none;" parent="1" vertex="1">
          <mxGeometry x="190" y="370" width="60" height="40" as="geometry" />
        </mxCell>
        <mxCell id="WX6nFHb2K4Oms33YcOjG-7" value="" style="rounded=1;whiteSpace=wrap;html=1;fillColor=none;" parent="1" vertex="1">
          <mxGeometry x="240" y="250" width="105" height="30" as="geometry" />
        </mxCell>
        <mxCell id="WX6nFHb2K4Oms33YcOjG-14" style="edgeStyle=orthogonalEdgeStyle;rounded=0;orthogonalLoop=1;jettySize=auto;html=1;exitX=0.25;exitY=0;exitDx=0;exitDy=0;entryX=0.613;entryY=1;entryDx=0;entryDy=0;entryPerimeter=0;" parent="1" source="WX6nFHb2K4Oms33YcOjG-9" target="WX6nFHb2K4Oms33YcOjG-12" edge="1">
          <mxGeometry relative="1" as="geometry" />
        </mxCell>
        <mxCell id="WX6nFHb2K4Oms33YcOjG-15" style="edgeStyle=orthogonalEdgeStyle;rounded=0;orthogonalLoop=1;jettySize=auto;html=1;exitX=0.75;exitY=0;exitDx=0;exitDy=0;entryX=0.5;entryY=1;entryDx=0;entryDy=0;" parent="1" source="WX6nFHb2K4Oms33YcOjG-9" target="WX6nFHb2K4Oms33YcOjG-11" edge="1">
          <mxGeometry relative="1" as="geometry" />
        </mxCell>
        <mxCell id="WX6nFHb2K4Oms33YcOjG-16" style="edgeStyle=orthogonalEdgeStyle;rounded=0;orthogonalLoop=1;jettySize=auto;html=1;exitX=1;exitY=0;exitDx=0;exitDy=0;entryX=0.5;entryY=1;entryDx=0;entryDy=0;" parent="1" source="WX6nFHb2K4Oms33YcOjG-9" target="WX6nFHb2K4Oms33YcOjG-10" edge="1">
          <mxGeometry relative="1" as="geometry" />
        </mxCell>
        <mxCell id="WX6nFHb2K4Oms33YcOjG-18" style="edgeStyle=orthogonalEdgeStyle;rounded=0;orthogonalLoop=1;jettySize=auto;html=1;exitX=1;exitY=0.5;exitDx=0;exitDy=0;" parent="1" source="WX6nFHb2K4Oms33YcOjG-9" target="WX6nFHb2K4Oms33YcOjG-13" edge="1">
          <mxGeometry relative="1" as="geometry" />
        </mxCell>
        <mxCell id="WX6nFHb2K4Oms33YcOjG-83" style="edgeStyle=orthogonalEdgeStyle;rounded=0;orthogonalLoop=1;jettySize=auto;html=1;exitX=0.5;exitY=1;exitDx=0;exitDy=0;entryX=0.5;entryY=0;entryDx=0;entryDy=0;" parent="1" source="WX6nFHb2K4Oms33YcOjG-9" target="WX6nFHb2K4Oms33YcOjG-82" edge="1">
          <mxGeometry relative="1" as="geometry" />
        </mxCell>
        <mxCell id="WX6nFHb2K4Oms33YcOjG-115" style="edgeStyle=orthogonalEdgeStyle;rounded=0;orthogonalLoop=1;jettySize=auto;html=1;exitX=0;exitY=0.5;exitDx=0;exitDy=0;entryX=1;entryY=0.5;entryDx=0;entryDy=0;" parent="1" source="WX6nFHb2K4Oms33YcOjG-9" target="WX6nFHb2K4Oms33YcOjG-116" edge="1">
          <mxGeometry relative="1" as="geometry">
            <mxPoint x="480" y="-140" as="targetPoint" />
            <Array as="points">
              <mxPoint x="690" y="73" />
              <mxPoint x="690" y="-139" />
            </Array>
          </mxGeometry>
        </mxCell>
        <mxCell id="WX6nFHb2K4Oms33YcOjG-9" value="Campaign" style="rounded=1;whiteSpace=wrap;html=1;fillColor=#FF6666;strokeColor=#23445d;" parent="1" vertex="1">
          <mxGeometry x="760" y="55" width="120" height="35" as="geometry" />
        </mxCell>
        <mxCell id="WX6nFHb2K4Oms33YcOjG-10" value="Date" style="ellipse;whiteSpace=wrap;html=1;fillColor=#FF9999;fontColor=#ffffff;strokeColor=#432D57;" parent="1" vertex="1">
          <mxGeometry x="880" y="20" width="70" height="25" as="geometry" />
        </mxCell>
        <mxCell id="WX6nFHb2K4Oms33YcOjG-11" value="name" style="ellipse;whiteSpace=wrap;html=1;fillColor=#FF9999;fontColor=#ffffff;strokeColor=#432D57;" parent="1" vertex="1">
          <mxGeometry x="800" y="-10" width="70" height="35" as="geometry" />
        </mxCell>
        <mxCell id="WX6nFHb2K4Oms33YcOjG-12" value="campaign-ID" style="ellipse;whiteSpace=wrap;html=1;fillColor=#FF9999;fontColor=#ffffff;strokeColor=#432D57;fontStyle=4" parent="1" vertex="1">
          <mxGeometry x="710" y="-15" width="80" height="40" as="geometry" />
        </mxCell>
        <mxCell id="WX6nFHb2K4Oms33YcOjG-13" value="Location" style="ellipse;whiteSpace=wrap;html=1;fillColor=#FF9999;fontColor=#ffffff;strokeColor=#432D57;" parent="1" vertex="1">
          <mxGeometry x="910" y="85" width="70" height="35" as="geometry" />
        </mxCell>
        <mxCell id="WX6nFHb2K4Oms33YcOjG-28" style="edgeStyle=orthogonalEdgeStyle;rounded=0;orthogonalLoop=1;jettySize=auto;html=1;exitX=1;exitY=0.5;exitDx=0;exitDy=0;" parent="1" source="WX6nFHb2K4Oms33YcOjG-19" target="WX6nFHb2K4Oms33YcOjG-27" edge="1">
          <mxGeometry relative="1" as="geometry" />
        </mxCell>
        <mxCell id="WX6nFHb2K4Oms33YcOjG-29" style="edgeStyle=orthogonalEdgeStyle;rounded=0;orthogonalLoop=1;jettySize=auto;html=1;exitX=0.75;exitY=1;exitDx=0;exitDy=0;entryX=0.5;entryY=0;entryDx=0;entryDy=0;" parent="1" source="WX6nFHb2K4Oms33YcOjG-19" target="WX6nFHb2K4Oms33YcOjG-21" edge="1">
          <mxGeometry relative="1" as="geometry" />
        </mxCell>
        <mxCell id="WX6nFHb2K4Oms33YcOjG-31" style="edgeStyle=orthogonalEdgeStyle;rounded=0;orthogonalLoop=1;jettySize=auto;html=1;exitX=0;exitY=0.5;exitDx=0;exitDy=0;" parent="1" source="WX6nFHb2K4Oms33YcOjG-19" target="WX6nFHb2K4Oms33YcOjG-20" edge="1">
          <mxGeometry relative="1" as="geometry" />
        </mxCell>
        <mxCell id="WX6nFHb2K4Oms33YcOjG-34" style="edgeStyle=orthogonalEdgeStyle;rounded=0;orthogonalLoop=1;jettySize=auto;html=1;exitX=0.25;exitY=0;exitDx=0;exitDy=0;entryX=0.5;entryY=1;entryDx=0;entryDy=0;" parent="1" source="WX6nFHb2K4Oms33YcOjG-19" target="WX6nFHb2K4Oms33YcOjG-22" edge="1">
          <mxGeometry relative="1" as="geometry" />
        </mxCell>
        <mxCell id="WX6nFHb2K4Oms33YcOjG-85" style="edgeStyle=orthogonalEdgeStyle;rounded=0;orthogonalLoop=1;jettySize=auto;html=1;exitX=0.5;exitY=0;exitDx=0;exitDy=0;entryX=0.5;entryY=1;entryDx=0;entryDy=0;" parent="1" source="WX6nFHb2K4Oms33YcOjG-19" target="WX6nFHb2K4Oms33YcOjG-82" edge="1">
          <mxGeometry relative="1" as="geometry" />
        </mxCell>
        <mxCell id="WX6nFHb2K4Oms33YcOjG-101" style="edgeStyle=orthogonalEdgeStyle;rounded=0;orthogonalLoop=1;jettySize=auto;html=1;exitX=0.5;exitY=1;exitDx=0;exitDy=0;entryX=0.5;entryY=0;entryDx=0;entryDy=0;" parent="1" source="WX6nFHb2K4Oms33YcOjG-19" target="WX6nFHb2K4Oms33YcOjG-100" edge="1">
          <mxGeometry relative="1" as="geometry" />
        </mxCell>
        <mxCell id="WX6nFHb2K4Oms33YcOjG-127" style="edgeStyle=orthogonalEdgeStyle;rounded=0;orthogonalLoop=1;jettySize=auto;html=1;exitX=0;exitY=1;exitDx=0;exitDy=0;entryX=1;entryY=0.5;entryDx=0;entryDy=0;" parent="1" source="WX6nFHb2K4Oms33YcOjG-19" target="WX6nFHb2K4Oms33YcOjG-126" edge="1">
          <mxGeometry relative="1" as="geometry" />
        </mxCell>
        <mxCell id="WX6nFHb2K4Oms33YcOjG-19" value="Hospital" style="rounded=1;whiteSpace=wrap;html=1;fillColor=#FF6666;strokeColor=#23445d;" parent="1" vertex="1">
          <mxGeometry x="788" y="280" width="120" height="35" as="geometry" />
        </mxCell>
        <mxCell id="WX6nFHb2K4Oms33YcOjG-20" value="H-ID" style="ellipse;whiteSpace=wrap;html=1;fillColor=#FF9999;fontColor=#ffffff;strokeColor=#432D57;fontStyle=4" parent="1" vertex="1">
          <mxGeometry x="680" y="280" width="70" height="35" as="geometry" />
        </mxCell>
        <mxCell id="WX6nFHb2K4Oms33YcOjG-21" value="Address" style="ellipse;whiteSpace=wrap;html=1;fillColor=#FF9999;fontColor=#ffffff;strokeColor=#432D57;" parent="1" vertex="1">
          <mxGeometry x="890" y="350" width="70" height="35" as="geometry" />
        </mxCell>
        <mxCell id="WX6nFHb2K4Oms33YcOjG-22" value="name" style="ellipse;whiteSpace=wrap;html=1;fillColor=#FF9999;fontColor=#ffffff;strokeColor=#432D57;" parent="1" vertex="1">
          <mxGeometry x="730" y="207.5" width="70" height="35" as="geometry" />
        </mxCell>
        <mxCell id="WX6nFHb2K4Oms33YcOjG-96" style="edgeStyle=orthogonalEdgeStyle;rounded=0;orthogonalLoop=1;jettySize=auto;html=1;exitX=1;exitY=0;exitDx=0;exitDy=0;entryX=0;entryY=0.5;entryDx=0;entryDy=0;" parent="1" source="WX6nFHb2K4Oms33YcOjG-27" target="WX6nFHb2K4Oms33YcOjG-94" edge="1">
          <mxGeometry relative="1" as="geometry" />
        </mxCell>
        <mxCell id="WX6nFHb2K4Oms33YcOjG-98" style="edgeStyle=orthogonalEdgeStyle;rounded=0;orthogonalLoop=1;jettySize=auto;html=1;exitX=1;exitY=1;exitDx=0;exitDy=0;" parent="1" source="WX6nFHb2K4Oms33YcOjG-27" target="WX6nFHb2K4Oms33YcOjG-95" edge="1">
          <mxGeometry relative="1" as="geometry" />
        </mxCell>
        <mxCell id="WX6nFHb2K4Oms33YcOjG-27" value="Contact-Number" style="ellipse;whiteSpace=wrap;html=1;fillColor=#FF9999;fontColor=#ffffff;strokeColor=#432D57;" parent="1" vertex="1">
          <mxGeometry x="949" y="280" width="70" height="35" as="geometry" />
        </mxCell>
        <mxCell id="WX6nFHb2K4Oms33YcOjG-40" style="edgeStyle=orthogonalEdgeStyle;rounded=0;orthogonalLoop=1;jettySize=auto;html=1;exitX=0;exitY=0.5;exitDx=0;exitDy=0;" parent="1" source="WX6nFHb2K4Oms33YcOjG-32" target="WX6nFHb2K4Oms33YcOjG-36" edge="1">
          <mxGeometry relative="1" as="geometry" />
        </mxCell>
        <mxCell id="WX6nFHb2K4Oms33YcOjG-41" style="edgeStyle=orthogonalEdgeStyle;rounded=0;orthogonalLoop=1;jettySize=auto;html=1;exitX=0.25;exitY=1;exitDx=0;exitDy=0;entryX=0.5;entryY=0;entryDx=0;entryDy=0;" parent="1" source="WX6nFHb2K4Oms33YcOjG-32" target="WX6nFHb2K4Oms33YcOjG-38" edge="1">
          <mxGeometry relative="1" as="geometry" />
        </mxCell>
        <mxCell id="WX6nFHb2K4Oms33YcOjG-42" style="edgeStyle=orthogonalEdgeStyle;rounded=0;orthogonalLoop=1;jettySize=auto;html=1;exitX=0.5;exitY=1;exitDx=0;exitDy=0;entryX=0.5;entryY=0;entryDx=0;entryDy=0;" parent="1" source="WX6nFHb2K4Oms33YcOjG-32" target="WX6nFHb2K4Oms33YcOjG-37" edge="1">
          <mxGeometry relative="1" as="geometry" />
        </mxCell>
        <mxCell id="WX6nFHb2K4Oms33YcOjG-43" style="edgeStyle=orthogonalEdgeStyle;rounded=0;orthogonalLoop=1;jettySize=auto;html=1;exitX=0.75;exitY=1;exitDx=0;exitDy=0;entryX=0;entryY=0.5;entryDx=0;entryDy=0;" parent="1" source="WX6nFHb2K4Oms33YcOjG-32" target="WX6nFHb2K4Oms33YcOjG-35" edge="1">
          <mxGeometry relative="1" as="geometry" />
        </mxCell>
        <mxCell id="WX6nFHb2K4Oms33YcOjG-103" style="edgeStyle=orthogonalEdgeStyle;rounded=0;orthogonalLoop=1;jettySize=auto;html=1;exitX=0.5;exitY=0;exitDx=0;exitDy=0;entryX=0.5;entryY=1;entryDx=0;entryDy=0;" parent="1" source="WX6nFHb2K4Oms33YcOjG-32" target="WX6nFHb2K4Oms33YcOjG-100" edge="1">
          <mxGeometry relative="1" as="geometry" />
        </mxCell>
        <mxCell id="WX6nFHb2K4Oms33YcOjG-108" style="edgeStyle=orthogonalEdgeStyle;rounded=0;orthogonalLoop=1;jettySize=auto;html=1;exitX=0.25;exitY=1;exitDx=0;exitDy=0;entryX=0.5;entryY=0;entryDx=0;entryDy=0;" parent="1" source="WX6nFHb2K4Oms33YcOjG-32" target="WX6nFHb2K4Oms33YcOjG-105" edge="1">
          <mxGeometry relative="1" as="geometry">
            <Array as="points">
              <mxPoint x="830" y="670" />
              <mxPoint x="765" y="670" />
            </Array>
          </mxGeometry>
        </mxCell>
        <mxCell id="WX6nFHb2K4Oms33YcOjG-32" value="patient" style="rounded=1;whiteSpace=wrap;html=1;fillColor=#FF6666;strokeColor=#23445d;" parent="1" vertex="1">
          <mxGeometry x="800" y="520" width="120" height="35" as="geometry" />
        </mxCell>
        <mxCell id="WX6nFHb2K4Oms33YcOjG-80" style="edgeStyle=orthogonalEdgeStyle;rounded=0;orthogonalLoop=1;jettySize=auto;html=1;exitX=0.5;exitY=1;exitDx=0;exitDy=0;entryX=0;entryY=0.5;entryDx=0;entryDy=0;" parent="1" source="WX6nFHb2K4Oms33YcOjG-35" target="WX6nFHb2K4Oms33YcOjG-78" edge="1">
          <mxGeometry relative="1" as="geometry" />
        </mxCell>
        <mxCell id="WX6nFHb2K4Oms33YcOjG-81" style="edgeStyle=orthogonalEdgeStyle;rounded=0;orthogonalLoop=1;jettySize=auto;html=1;exitX=1;exitY=0;exitDx=0;exitDy=0;entryX=0;entryY=0.5;entryDx=0;entryDy=0;" parent="1" source="WX6nFHb2K4Oms33YcOjG-35" target="WX6nFHb2K4Oms33YcOjG-77" edge="1">
          <mxGeometry relative="1" as="geometry" />
        </mxCell>
        <mxCell id="WX6nFHb2K4Oms33YcOjG-35" value="contact-Number" style="ellipse;whiteSpace=wrap;html=1;fillColor=#FF9999;fontColor=#ffffff;strokeColor=#432D57;" parent="1" vertex="1">
          <mxGeometry x="950" y="560" width="70" height="35" as="geometry" />
        </mxCell>
        <mxCell id="WX6nFHb2K4Oms33YcOjG-36" value="p-ID" style="ellipse;whiteSpace=wrap;html=1;fillColor=#FF9999;fontColor=#ffffff;strokeColor=#432D57;fontStyle=4" parent="1" vertex="1">
          <mxGeometry x="690" y="542.5" width="70" height="35" as="geometry" />
        </mxCell>
        <mxCell id="WX6nFHb2K4Oms33YcOjG-37" value="Name" style="ellipse;whiteSpace=wrap;html=1;fillColor=#FF9999;fontColor=#ffffff;strokeColor=#432D57;" parent="1" vertex="1">
          <mxGeometry x="850" y="610" width="70" height="35" as="geometry" />
        </mxCell>
        <mxCell id="WX6nFHb2K4Oms33YcOjG-38" value="DOB" style="ellipse;whiteSpace=wrap;html=1;fillColor=#FF9999;fontColor=#ffffff;strokeColor=#432D57;" parent="1" vertex="1">
          <mxGeometry x="750" y="610" width="70" height="35" as="geometry" />
        </mxCell>
        <mxCell id="WX6nFHb2K4Oms33YcOjG-49" style="edgeStyle=orthogonalEdgeStyle;rounded=0;orthogonalLoop=1;jettySize=auto;html=1;exitX=0.25;exitY=1;exitDx=0;exitDy=0;entryX=0.5;entryY=0;entryDx=0;entryDy=0;" parent="1" source="WX6nFHb2K4Oms33YcOjG-44" target="WX6nFHb2K4Oms33YcOjG-47" edge="1">
          <mxGeometry relative="1" as="geometry" />
        </mxCell>
        <mxCell id="WX6nFHb2K4Oms33YcOjG-50" style="edgeStyle=orthogonalEdgeStyle;rounded=0;orthogonalLoop=1;jettySize=auto;html=1;exitX=0.75;exitY=1;exitDx=0;exitDy=0;" parent="1" source="WX6nFHb2K4Oms33YcOjG-44" target="WX6nFHb2K4Oms33YcOjG-46" edge="1">
          <mxGeometry relative="1" as="geometry" />
        </mxCell>
        <mxCell id="WX6nFHb2K4Oms33YcOjG-52" style="edgeStyle=orthogonalEdgeStyle;rounded=0;orthogonalLoop=1;jettySize=auto;html=1;exitX=1;exitY=0.75;exitDx=0;exitDy=0;" parent="1" source="WX6nFHb2K4Oms33YcOjG-44" target="WX6nFHb2K4Oms33YcOjG-45" edge="1">
          <mxGeometry relative="1" as="geometry" />
        </mxCell>
        <mxCell id="WX6nFHb2K4Oms33YcOjG-59" style="edgeStyle=orthogonalEdgeStyle;rounded=0;orthogonalLoop=1;jettySize=auto;html=1;exitX=1;exitY=0.25;exitDx=0;exitDy=0;entryX=0.5;entryY=1;entryDx=0;entryDy=0;" parent="1" source="WX6nFHb2K4Oms33YcOjG-44" target="WX6nFHb2K4Oms33YcOjG-53" edge="1">
          <mxGeometry relative="1" as="geometry" />
        </mxCell>
        <mxCell id="WX6nFHb2K4Oms33YcOjG-61" style="edgeStyle=orthogonalEdgeStyle;rounded=0;orthogonalLoop=1;jettySize=auto;html=1;exitX=0.75;exitY=0;exitDx=0;exitDy=0;entryX=0.5;entryY=1;entryDx=0;entryDy=0;" parent="1" source="WX6nFHb2K4Oms33YcOjG-44" target="WX6nFHb2K4Oms33YcOjG-60" edge="1">
          <mxGeometry relative="1" as="geometry" />
        </mxCell>
        <mxCell id="WX6nFHb2K4Oms33YcOjG-64" style="edgeStyle=orthogonalEdgeStyle;rounded=0;orthogonalLoop=1;jettySize=auto;html=1;exitX=0.25;exitY=0;exitDx=0;exitDy=0;entryX=0.6;entryY=0.971;entryDx=0;entryDy=0;entryPerimeter=0;" parent="1" source="WX6nFHb2K4Oms33YcOjG-44" target="WX6nFHb2K4Oms33YcOjG-62" edge="1">
          <mxGeometry relative="1" as="geometry" />
        </mxCell>
        <mxCell id="WX6nFHb2K4Oms33YcOjG-44" value="patient-Medical history" style="rounded=1;whiteSpace=wrap;html=1;fillColor=#FF6666;strokeColor=#23445d;" parent="1" vertex="1">
          <mxGeometry x="894" y="795" width="120" height="45" as="geometry" />
        </mxCell>
        <mxCell id="WX6nFHb2K4Oms33YcOjG-45" value="pulse" style="ellipse;whiteSpace=wrap;html=1;fillColor=#FF9999;fontColor=#ffffff;strokeColor=#432D57;" parent="1" vertex="1">
          <mxGeometry x="1054" y="805" width="70" height="35" as="geometry" />
        </mxCell>
        <mxCell id="WX6nFHb2K4Oms33YcOjG-46" value="health history" style="ellipse;whiteSpace=wrap;html=1;fillColor=#FF9999;fontColor=#ffffff;strokeColor=#432D57;" parent="1" vertex="1">
          <mxGeometry x="954" y="885" width="70" height="35" as="geometry" />
        </mxCell>
        <mxCell id="WX6nFHb2K4Oms33YcOjG-47" value="drugs" style="ellipse;whiteSpace=wrap;html=1;fillColor=#FF9999;fontColor=#ffffff;strokeColor=#432D57;" parent="1" vertex="1">
          <mxGeometry x="844" y="875" width="70" height="35" as="geometry" />
        </mxCell>
        <mxCell id="WX6nFHb2K4Oms33YcOjG-106" style="edgeStyle=orthogonalEdgeStyle;rounded=0;orthogonalLoop=1;jettySize=auto;html=1;entryX=0.5;entryY=1;entryDx=0;entryDy=0;shape=link;" parent="1" source="WX6nFHb2K4Oms33YcOjG-48" target="WX6nFHb2K4Oms33YcOjG-105" edge="1">
          <mxGeometry relative="1" as="geometry" />
        </mxCell>
        <mxCell id="WX6nFHb2K4Oms33YcOjG-48" value="" style="rounded=1;whiteSpace=wrap;html=1;fillColor=none;" parent="1" vertex="1">
          <mxGeometry x="904" y="801.25" width="100" height="32.5" as="geometry" />
        </mxCell>
        <mxCell id="WX6nFHb2K4Oms33YcOjG-53" value="Temp" style="ellipse;whiteSpace=wrap;html=1;fillColor=#FF9999;fontColor=#ffffff;strokeColor=#432D57;" parent="1" vertex="1">
          <mxGeometry x="1024" y="745" width="60" height="35" as="geometry" />
        </mxCell>
        <mxCell id="WX6nFHb2K4Oms33YcOjG-60" value="pressure" style="ellipse;whiteSpace=wrap;html=1;fillColor=#FF9999;fontColor=#ffffff;strokeColor=#432D57;" parent="1" vertex="1">
          <mxGeometry x="944" y="735" width="70" height="35" as="geometry" />
        </mxCell>
        <mxCell id="WX6nFHb2K4Oms33YcOjG-62" value="Travels" style="ellipse;whiteSpace=wrap;html=1;fillColor=#FF9999;fontColor=#ffffff;strokeColor=#432D57;" parent="1" vertex="1">
          <mxGeometry x="864" y="735" width="70" height="35" as="geometry" />
        </mxCell>
        <mxCell id="WX6nFHb2K4Oms33YcOjG-69" style="edgeStyle=orthogonalEdgeStyle;rounded=0;orthogonalLoop=1;jettySize=auto;html=1;exitX=0;exitY=0.5;exitDx=0;exitDy=0;entryX=1;entryY=0.5;entryDx=0;entryDy=0;" parent="1" source="WX6nFHb2K4Oms33YcOjG-65" target="WX6nFHb2K4Oms33YcOjG-68" edge="1">
          <mxGeometry relative="1" as="geometry" />
        </mxCell>
        <mxCell id="WX6nFHb2K4Oms33YcOjG-70" style="edgeStyle=orthogonalEdgeStyle;rounded=0;orthogonalLoop=1;jettySize=auto;html=1;exitX=0.25;exitY=1;exitDx=0;exitDy=0;entryX=0.5;entryY=0;entryDx=0;entryDy=0;" parent="1" source="WX6nFHb2K4Oms33YcOjG-65" target="WX6nFHb2K4Oms33YcOjG-66" edge="1">
          <mxGeometry relative="1" as="geometry" />
        </mxCell>
        <mxCell id="WX6nFHb2K4Oms33YcOjG-71" style="edgeStyle=orthogonalEdgeStyle;rounded=0;orthogonalLoop=1;jettySize=auto;html=1;exitX=0.75;exitY=1;exitDx=0;exitDy=0;entryX=0.5;entryY=0;entryDx=0;entryDy=0;" parent="1" source="WX6nFHb2K4Oms33YcOjG-65" target="WX6nFHb2K4Oms33YcOjG-67" edge="1">
          <mxGeometry relative="1" as="geometry" />
        </mxCell>
        <mxCell id="WX6nFHb2K4Oms33YcOjG-114" style="edgeStyle=orthogonalEdgeStyle;rounded=0;orthogonalLoop=1;jettySize=auto;html=1;exitX=0.5;exitY=0;exitDx=0;exitDy=0;entryX=0.5;entryY=1;entryDx=0;entryDy=0;" parent="1" source="WX6nFHb2K4Oms33YcOjG-65" target="WX6nFHb2K4Oms33YcOjG-110" edge="1">
          <mxGeometry relative="1" as="geometry">
            <mxPoint x="390" y="710" as="targetPoint" />
          </mxGeometry>
        </mxCell>
        <mxCell id="WX6nFHb2K4Oms33YcOjG-65" value="blood Bank manager" style="rounded=1;whiteSpace=wrap;html=1;fillColor=#FF6666;strokeColor=#23445d;" parent="1" vertex="1">
          <mxGeometry x="450" y="810" width="120" height="35" as="geometry" />
        </mxCell>
        <mxCell id="WX6nFHb2K4Oms33YcOjG-66" value="Name" style="ellipse;whiteSpace=wrap;html=1;fillColor=#FF9999;fontColor=#ffffff;strokeColor=#432D57;" parent="1" vertex="1">
          <mxGeometry x="410" y="885" width="70" height="35" as="geometry" />
        </mxCell>
        <mxCell id="WX6nFHb2K4Oms33YcOjG-75" style="edgeStyle=orthogonalEdgeStyle;rounded=0;orthogonalLoop=1;jettySize=auto;html=1;exitX=1;exitY=1;exitDx=0;exitDy=0;entryX=0.5;entryY=0;entryDx=0;entryDy=0;" parent="1" source="WX6nFHb2K4Oms33YcOjG-67" target="WX6nFHb2K4Oms33YcOjG-73" edge="1">
          <mxGeometry relative="1" as="geometry" />
        </mxCell>
        <mxCell id="WX6nFHb2K4Oms33YcOjG-76" style="edgeStyle=orthogonalEdgeStyle;rounded=0;orthogonalLoop=1;jettySize=auto;html=1;exitX=0;exitY=1;exitDx=0;exitDy=0;entryX=1;entryY=0;entryDx=0;entryDy=0;" parent="1" source="WX6nFHb2K4Oms33YcOjG-67" target="WX6nFHb2K4Oms33YcOjG-72" edge="1">
          <mxGeometry relative="1" as="geometry" />
        </mxCell>
        <mxCell id="WX6nFHb2K4Oms33YcOjG-67" value="contact Number" style="ellipse;whiteSpace=wrap;html=1;fillColor=#FF9999;fontColor=#ffffff;strokeColor=#432D57;" parent="1" vertex="1">
          <mxGeometry x="509" y="885" width="70" height="35" as="geometry" />
        </mxCell>
        <mxCell id="WX6nFHb2K4Oms33YcOjG-68" value="ID" style="ellipse;whiteSpace=wrap;html=1;fillColor=#FF9999;fontColor=#ffffff;strokeColor=#432D57;fontStyle=4" parent="1" vertex="1">
          <mxGeometry x="330" y="810" width="70" height="35" as="geometry" />
        </mxCell>
        <mxCell id="WX6nFHb2K4Oms33YcOjG-72" value="Phone" style="ellipse;whiteSpace=wrap;html=1;fillColor=#FFE6CC;fontColor=#000000;strokeColor=#BD7000;" parent="1" vertex="1">
          <mxGeometry x="475" y="950" width="70" height="30" as="geometry" />
        </mxCell>
        <mxCell id="WX6nFHb2K4Oms33YcOjG-73" value="Email" style="ellipse;whiteSpace=wrap;html=1;fillColor=#FFE6CC;fontColor=#000000;strokeColor=#BD7000;" parent="1" vertex="1">
          <mxGeometry x="558" y="950" width="70" height="30" as="geometry" />
        </mxCell>
        <mxCell id="WX6nFHb2K4Oms33YcOjG-77" value="Phone" style="ellipse;whiteSpace=wrap;html=1;fillColor=#FFE6CC;fontColor=#000000;strokeColor=#BD7000;" parent="1" vertex="1">
          <mxGeometry x="1070" y="560" width="70" height="30" as="geometry" />
        </mxCell>
        <mxCell id="WX6nFHb2K4Oms33YcOjG-78" value="Email" style="ellipse;whiteSpace=wrap;html=1;fillColor=#FFE6CC;fontColor=#000000;strokeColor=#BD7000;" parent="1" vertex="1">
          <mxGeometry x="1060" y="600" width="70" height="30" as="geometry" />
        </mxCell>
        <mxCell id="WX6nFHb2K4Oms33YcOjG-82" value="Stored" style="rhombus;whiteSpace=wrap;html=1;fillColor=#B3B3B3;fontColor=#ffffff;strokeColor=#005700;" parent="1" vertex="1">
          <mxGeometry x="800" y="140" width="80" height="70" as="geometry" />
        </mxCell>
        <mxCell id="WX6nFHb2K4Oms33YcOjG-86" value="1" style="rounded=0;whiteSpace=wrap;html=1;fillColor=none;strokeColor=none;" parent="1" vertex="1">
          <mxGeometry x="800" y="110" width="60" height="40" as="geometry" />
        </mxCell>
        <mxCell id="WX6nFHb2K4Oms33YcOjG-87" value="M" style="rounded=0;whiteSpace=wrap;html=1;fillColor=none;strokeColor=none;" parent="1" vertex="1">
          <mxGeometry x="800" y="202.5" width="60" height="40" as="geometry" />
        </mxCell>
        <mxCell id="WX6nFHb2K4Oms33YcOjG-89" value="email" style="ellipse;whiteSpace=wrap;html=1;fillColor=#FFE6CC;fontColor=#000000;strokeColor=#BD7000;" parent="1" vertex="1">
          <mxGeometry x="40" y="-90" width="60" height="30" as="geometry" />
        </mxCell>
        <mxCell id="WX6nFHb2K4Oms33YcOjG-90" value="phone" style="ellipse;whiteSpace=wrap;html=1;fillColor=#FFE6CC;fontColor=#000000;strokeColor=#BD7000;" parent="1" vertex="1">
          <mxGeometry x="110" y="-90" width="60" height="30" as="geometry" />
        </mxCell>
        <mxCell id="WX6nFHb2K4Oms33YcOjG-94" value="Phone" style="ellipse;whiteSpace=wrap;html=1;fillColor=#FFE6CC;fontColor=#000000;strokeColor=#BD7000;" parent="1" vertex="1">
          <mxGeometry x="1050" y="250" width="70" height="30" as="geometry" />
        </mxCell>
        <mxCell id="WX6nFHb2K4Oms33YcOjG-95" value="Email" style="ellipse;whiteSpace=wrap;html=1;fillColor=#FFE6CC;fontColor=#000000;strokeColor=#BD7000;" parent="1" vertex="1">
          <mxGeometry x="1050" y="315" width="70" height="30" as="geometry" />
        </mxCell>
        <mxCell id="WX6nFHb2K4Oms33YcOjG-100" value="Delivers" style="rhombus;whiteSpace=wrap;html=1;fillColor=#B3B3B3;fontColor=#ffffff;strokeColor=#005700;" parent="1" vertex="1">
          <mxGeometry x="810" y="389" width="80" height="61" as="geometry" />
        </mxCell>
        <mxCell id="WX6nFHb2K4Oms33YcOjG-105" value="has" style="rhombus;whiteSpace=wrap;html=1;fillColor=#B3B3B3;fontColor=#ffffff;strokeColor=#005700;" parent="1" vertex="1">
          <mxGeometry x="725" y="719" width="80" height="61" as="geometry" />
        </mxCell>
        <mxCell id="nGkiocJGrpNyFu5htgxb-45" style="edgeStyle=orthogonalEdgeStyle;rounded=0;orthogonalLoop=1;jettySize=auto;html=1;exitX=0.5;exitY=0;exitDx=0;exitDy=0;entryX=0;entryY=0.75;entryDx=0;entryDy=0;" edge="1" parent="1" source="WX6nFHb2K4Oms33YcOjG-110" target="QQcvoR1NB1t4eQLzPKgB-5">
          <mxGeometry relative="1" as="geometry" />
        </mxCell>
        <mxCell id="WX6nFHb2K4Oms33YcOjG-110" value="Manage" style="rhombus;whiteSpace=wrap;html=1;fillColor=#B3B3B3;fontColor=#ffffff;strokeColor=#005700;" parent="1" vertex="1">
          <mxGeometry x="350" y="640" width="80" height="61" as="geometry" />
        </mxCell>
        <mxCell id="WX6nFHb2K4Oms33YcOjG-116" value="Donates" style="rhombus;whiteSpace=wrap;html=1;fillColor=#B3B3B3;strokeColor=#006EAF;fontColor=#ffffff;" parent="1" vertex="1">
          <mxGeometry x="399" y="-163" width="80" height="61" as="geometry" />
        </mxCell>
        <mxCell id="WX6nFHb2K4Oms33YcOjG-118" value="1" style="text;html=1;align=center;verticalAlign=middle;resizable=0;points=[];autosize=1;strokeColor=none;fillColor=none;" parent="1" vertex="1">
          <mxGeometry x="490" y="-175" width="30" height="30" as="geometry" />
        </mxCell>
        <mxCell id="WX6nFHb2K4Oms33YcOjG-119" value="M" style="text;html=1;align=center;verticalAlign=middle;resizable=0;points=[];autosize=1;strokeColor=none;fillColor=none;" parent="1" vertex="1">
          <mxGeometry x="360" y="-175" width="30" height="30" as="geometry" />
        </mxCell>
        <mxCell id="WX6nFHb2K4Oms33YcOjG-120" value="M" style="text;html=1;align=center;verticalAlign=middle;resizable=0;points=[];autosize=1;strokeColor=none;fillColor=none;" parent="1" vertex="1">
          <mxGeometry x="805" y="450" width="30" height="30" as="geometry" />
        </mxCell>
        <mxCell id="WX6nFHb2K4Oms33YcOjG-121" value="1" style="text;html=1;align=center;verticalAlign=middle;resizable=0;points=[];autosize=1;strokeColor=none;fillColor=none;" parent="1" vertex="1">
          <mxGeometry x="805" y="355" width="30" height="30" as="geometry" />
        </mxCell>
        <mxCell id="WX6nFHb2K4Oms33YcOjG-122" value="1" style="text;html=1;align=center;verticalAlign=middle;resizable=0;points=[];autosize=1;strokeColor=none;fillColor=none;" parent="1" vertex="1">
          <mxGeometry x="725" y="689" width="30" height="30" as="geometry" />
        </mxCell>
        <mxCell id="WX6nFHb2K4Oms33YcOjG-123" value="1" style="text;html=1;align=center;verticalAlign=middle;resizable=0;points=[];autosize=1;strokeColor=none;fillColor=none;" parent="1" vertex="1">
          <mxGeometry x="725" y="780" width="30" height="30" as="geometry" />
        </mxCell>
        <mxCell id="WX6nFHb2K4Oms33YcOjG-124" value="1" style="text;html=1;align=center;verticalAlign=middle;resizable=0;points=[];autosize=1;strokeColor=none;fillColor=none;" parent="1" vertex="1">
          <mxGeometry x="340" y="615" width="30" height="30" as="geometry" />
        </mxCell>
        <mxCell id="WX6nFHb2K4Oms33YcOjG-125" value="1" style="text;html=1;align=center;verticalAlign=middle;resizable=0;points=[];autosize=1;strokeColor=none;fillColor=none;" parent="1" vertex="1">
          <mxGeometry x="345" y="695" width="30" height="30" as="geometry" />
        </mxCell>
        <mxCell id="WX6nFHb2K4Oms33YcOjG-126" value="Orders" style="rhombus;whiteSpace=wrap;html=1;fillColor=#B3B3B3;fontColor=#ffffff;strokeColor=#005700;" parent="1" vertex="1">
          <mxGeometry x="630" y="330" width="80" height="61" as="geometry" />
        </mxCell>
        <mxCell id="WX6nFHb2K4Oms33YcOjG-129" value="M" style="text;html=1;align=center;verticalAlign=middle;resizable=0;points=[];autosize=1;strokeColor=none;fillColor=none;" parent="1" vertex="1">
          <mxGeometry x="720" y="330" width="30" height="30" as="geometry" />
        </mxCell>
        <mxCell id="WX6nFHb2K4Oms33YcOjG-130" value="M" style="text;html=1;align=center;verticalAlign=middle;resizable=0;points=[];autosize=1;strokeColor=none;fillColor=none;" parent="1" vertex="1">
          <mxGeometry x="590" y="330" width="30" height="30" as="geometry" />
        </mxCell>
        <mxCell id="WX6nFHb2K4Oms33YcOjG-131" value="" style="rhombus;whiteSpace=wrap;html=1;fillColor=none;" parent="1" vertex="1">
          <mxGeometry x="125" y="155" width="70" height="60" as="geometry" />
        </mxCell>
        <mxCell id="nGkiocJGrpNyFu5htgxb-12" style="edgeStyle=orthogonalEdgeStyle;rounded=0;orthogonalLoop=1;jettySize=auto;html=1;exitX=0;exitY=0.5;exitDx=0;exitDy=0;" edge="1" parent="1" source="nGkiocJGrpNyFu5htgxb-1" target="nGkiocJGrpNyFu5htgxb-9">
          <mxGeometry relative="1" as="geometry" />
        </mxCell>
        <mxCell id="nGkiocJGrpNyFu5htgxb-13" style="edgeStyle=orthogonalEdgeStyle;rounded=0;orthogonalLoop=1;jettySize=auto;html=1;exitX=0.25;exitY=1;exitDx=0;exitDy=0;" edge="1" parent="1" source="nGkiocJGrpNyFu5htgxb-1" target="nGkiocJGrpNyFu5htgxb-11">
          <mxGeometry relative="1" as="geometry" />
        </mxCell>
        <mxCell id="nGkiocJGrpNyFu5htgxb-14" style="edgeStyle=orthogonalEdgeStyle;rounded=0;orthogonalLoop=1;jettySize=auto;html=1;exitX=0.5;exitY=1;exitDx=0;exitDy=0;" edge="1" parent="1" source="nGkiocJGrpNyFu5htgxb-1" target="nGkiocJGrpNyFu5htgxb-7">
          <mxGeometry relative="1" as="geometry" />
        </mxCell>
        <mxCell id="nGkiocJGrpNyFu5htgxb-18" style="edgeStyle=orthogonalEdgeStyle;rounded=0;orthogonalLoop=1;jettySize=auto;html=1;entryX=0.5;entryY=1;entryDx=0;entryDy=0;" edge="1" parent="1" source="nGkiocJGrpNyFu5htgxb-1" target="nGkiocJGrpNyFu5htgxb-15">
          <mxGeometry relative="1" as="geometry" />
        </mxCell>
        <mxCell id="nGkiocJGrpNyFu5htgxb-19" style="edgeStyle=orthogonalEdgeStyle;rounded=0;orthogonalLoop=1;jettySize=auto;html=1;exitX=0;exitY=0;exitDx=0;exitDy=0;entryX=1;entryY=0.5;entryDx=0;entryDy=0;" edge="1" parent="1" source="nGkiocJGrpNyFu5htgxb-1" target="nGkiocJGrpNyFu5htgxb-4">
          <mxGeometry relative="1" as="geometry" />
        </mxCell>
        <mxCell id="nGkiocJGrpNyFu5htgxb-55" style="edgeStyle=orthogonalEdgeStyle;rounded=0;orthogonalLoop=1;jettySize=auto;html=1;exitX=0.75;exitY=0;exitDx=0;exitDy=0;" edge="1" parent="1" source="nGkiocJGrpNyFu5htgxb-1" target="nGkiocJGrpNyFu5htgxb-8">
          <mxGeometry relative="1" as="geometry" />
        </mxCell>
        <mxCell id="nGkiocJGrpNyFu5htgxb-1" value="platform" style="rounded=1;whiteSpace=wrap;html=1;fillColor=#FF6666;strokeColor=#23445d;" vertex="1" parent="1">
          <mxGeometry x="-190" y="225" width="120" height="40" as="geometry" />
        </mxCell>
        <mxCell id="nGkiocJGrpNyFu5htgxb-4" value="ID" style="ellipse;whiteSpace=wrap;html=1;fillColor=#FF9999;fontColor=#ffffff;strokeColor=#432D57;fontStyle=4" vertex="1" parent="1">
          <mxGeometry x="-320" y="202.5" width="70" height="30" as="geometry" />
        </mxCell>
        <mxCell id="nGkiocJGrpNyFu5htgxb-7" value="Version" style="ellipse;whiteSpace=wrap;html=1;fillColor=#FF9999;fontColor=#ffffff;strokeColor=#432D57;" vertex="1" parent="1">
          <mxGeometry x="-140" y="315" width="80" height="40" as="geometry" />
        </mxCell>
        <mxCell id="nGkiocJGrpNyFu5htgxb-8" value="Name" style="ellipse;whiteSpace=wrap;html=1;fillColor=#FF9999;fontColor=#ffffff;strokeColor=#432D57;" vertex="1" parent="1">
          <mxGeometry x="-130" y="160" width="80" height="40" as="geometry" />
        </mxCell>
        <mxCell id="nGkiocJGrpNyFu5htgxb-9" value="App-type" style="ellipse;whiteSpace=wrap;html=1;fillColor=#FF9999;fontColor=#ffffff;strokeColor=#432D57;" vertex="1" parent="1">
          <mxGeometry x="-300" y="250" width="80" height="40" as="geometry" />
        </mxCell>
        <mxCell id="nGkiocJGrpNyFu5htgxb-11" value="vendor" style="ellipse;whiteSpace=wrap;html=1;fillColor=#FF9999;fontColor=#ffffff;strokeColor=#432D57;" vertex="1" parent="1">
          <mxGeometry x="-240" y="300" width="80" height="40" as="geometry" />
        </mxCell>
        <mxCell id="nGkiocJGrpNyFu5htgxb-15" value="Register" style="rhombus;whiteSpace=wrap;html=1;fillColor=#B3B3B3;strokeColor=#005700;fontColor=#ffffff;" vertex="1" parent="1">
          <mxGeometry x="-250" y="30" width="80" height="70" as="geometry" />
        </mxCell>
        <mxCell id="nGkiocJGrpNyFu5htgxb-20" value="1" style="rounded=0;whiteSpace=wrap;html=1;fillColor=none;strokeColor=none;" vertex="1" parent="1">
          <mxGeometry x="-260" y="90" width="60" height="40" as="geometry" />
        </mxCell>
        <mxCell id="nGkiocJGrpNyFu5htgxb-21" value="M" style="rounded=0;whiteSpace=wrap;html=1;fillColor=none;strokeColor=none;" vertex="1" parent="1">
          <mxGeometry x="-180" y="20" width="60" height="40" as="geometry" />
        </mxCell>
        <mxCell id="nGkiocJGrpNyFu5htgxb-30" style="edgeStyle=orthogonalEdgeStyle;rounded=0;orthogonalLoop=1;jettySize=auto;html=1;exitX=1;exitY=0.5;exitDx=0;exitDy=0;entryX=0;entryY=0;entryDx=0;entryDy=0;" edge="1" parent="1" source="nGkiocJGrpNyFu5htgxb-22" target="nGkiocJGrpNyFu5htgxb-27">
          <mxGeometry relative="1" as="geometry" />
        </mxCell>
        <mxCell id="nGkiocJGrpNyFu5htgxb-31" style="edgeStyle=orthogonalEdgeStyle;rounded=0;orthogonalLoop=1;jettySize=auto;html=1;exitX=1;exitY=1;exitDx=0;exitDy=0;entryX=0.5;entryY=0;entryDx=0;entryDy=0;" edge="1" parent="1" source="nGkiocJGrpNyFu5htgxb-22" target="nGkiocJGrpNyFu5htgxb-26">
          <mxGeometry relative="1" as="geometry" />
        </mxCell>
        <mxCell id="nGkiocJGrpNyFu5htgxb-32" style="edgeStyle=orthogonalEdgeStyle;rounded=0;orthogonalLoop=1;jettySize=auto;html=1;exitX=0;exitY=1;exitDx=0;exitDy=0;entryX=0.5;entryY=0;entryDx=0;entryDy=0;" edge="1" parent="1" source="nGkiocJGrpNyFu5htgxb-22" target="nGkiocJGrpNyFu5htgxb-25">
          <mxGeometry relative="1" as="geometry" />
        </mxCell>
        <mxCell id="nGkiocJGrpNyFu5htgxb-22" value="Address" style="ellipse;whiteSpace=wrap;html=1;fillColor=#FF9999;fontColor=#ffffff;strokeColor=#432D57;" vertex="1" parent="1">
          <mxGeometry x="210" y="85" width="60" height="30" as="geometry" />
        </mxCell>
        <mxCell id="nGkiocJGrpNyFu5htgxb-25" value="street" style="ellipse;whiteSpace=wrap;html=1;fillColor=#FFE6CC;fontColor=#000000;strokeColor=#BD7000;" vertex="1" parent="1">
          <mxGeometry x="180" y="135" width="50" height="30" as="geometry" />
        </mxCell>
        <mxCell id="nGkiocJGrpNyFu5htgxb-26" value="city" style="ellipse;whiteSpace=wrap;html=1;fillColor=#FFE6CC;fontColor=#000000;strokeColor=#BD7000;" vertex="1" parent="1">
          <mxGeometry x="230" y="125" width="50" height="30" as="geometry" />
        </mxCell>
        <mxCell id="nGkiocJGrpNyFu5htgxb-27" value="Governorate" style="ellipse;whiteSpace=wrap;html=1;fillColor=#FFE6CC;fontColor=#000000;strokeColor=#BD7000;" vertex="1" parent="1">
          <mxGeometry x="285" y="110" width="90" height="30" as="geometry" />
        </mxCell>
        <mxCell id="nGkiocJGrpNyFu5htgxb-33" value="email" style="ellipse;whiteSpace=wrap;html=1;fillColor=#FFE6CC;fontColor=#000000;strokeColor=#BD7000;" vertex="1" parent="1">
          <mxGeometry x="70" y="615" width="60" height="30" as="geometry" />
        </mxCell>
        <mxCell id="nGkiocJGrpNyFu5htgxb-34" value="phone" style="ellipse;whiteSpace=wrap;html=1;fillColor=#FFE6CC;fontColor=#000000;strokeColor=#BD7000;" vertex="1" parent="1">
          <mxGeometry x="160" y="615" width="60" height="30" as="geometry" />
        </mxCell>
        <mxCell id="nGkiocJGrpNyFu5htgxb-47" style="edgeStyle=orthogonalEdgeStyle;rounded=0;orthogonalLoop=1;jettySize=auto;html=1;exitX=1;exitY=0.5;exitDx=0;exitDy=0;entryX=0;entryY=1;entryDx=0;entryDy=0;" edge="1" parent="1" source="nGkiocJGrpNyFu5htgxb-38" target="nGkiocJGrpNyFu5htgxb-39">
          <mxGeometry relative="1" as="geometry" />
        </mxCell>
        <mxCell id="nGkiocJGrpNyFu5htgxb-49" style="edgeStyle=orthogonalEdgeStyle;rounded=0;orthogonalLoop=1;jettySize=auto;html=1;exitX=1;exitY=1;exitDx=0;exitDy=0;entryX=0;entryY=0;entryDx=0;entryDy=0;" edge="1" parent="1" source="nGkiocJGrpNyFu5htgxb-38" target="nGkiocJGrpNyFu5htgxb-40">
          <mxGeometry relative="1" as="geometry" />
        </mxCell>
        <mxCell id="nGkiocJGrpNyFu5htgxb-50" style="edgeStyle=orthogonalEdgeStyle;rounded=0;orthogonalLoop=1;jettySize=auto;html=1;exitX=0.5;exitY=1;exitDx=0;exitDy=0;entryX=0.5;entryY=0;entryDx=0;entryDy=0;" edge="1" parent="1" source="nGkiocJGrpNyFu5htgxb-38" target="nGkiocJGrpNyFu5htgxb-41">
          <mxGeometry relative="1" as="geometry" />
        </mxCell>
        <mxCell id="nGkiocJGrpNyFu5htgxb-38" value="Address" style="ellipse;whiteSpace=wrap;html=1;fillColor=#FF9999;fontColor=#ffffff;strokeColor=#432D57;" vertex="1" parent="1">
          <mxGeometry x="190" y="500" width="60" height="30" as="geometry" />
        </mxCell>
        <mxCell id="nGkiocJGrpNyFu5htgxb-39" value="street" style="ellipse;whiteSpace=wrap;html=1;fillColor=#FFE6CC;fontColor=#000000;strokeColor=#BD7000;" vertex="1" parent="1">
          <mxGeometry x="280" y="499" width="50" height="30" as="geometry" />
        </mxCell>
        <mxCell id="nGkiocJGrpNyFu5htgxb-41" value="city" style="ellipse;whiteSpace=wrap;html=1;fillColor=#FFE6CC;fontColor=#000000;strokeColor=#BD7000;" vertex="1" parent="1">
          <mxGeometry x="195" y="555" width="50" height="30" as="geometry" />
        </mxCell>
        <mxCell id="nGkiocJGrpNyFu5htgxb-40" value="Governorate" style="ellipse;whiteSpace=wrap;html=1;fillColor=#FFE6CC;fontColor=#000000;strokeColor=#BD7000;" vertex="1" parent="1">
          <mxGeometry x="245" y="544.5" width="90" height="30" as="geometry" />
        </mxCell>
        <mxCell id="nGkiocJGrpNyFu5htgxb-52" value="expired-date" style="ellipse;whiteSpace=wrap;html=1;fillColor=#FF9999;fontColor=#ffffff;strokeColor=#432D57;" vertex="1" parent="1">
          <mxGeometry x="605" y="80" width="80" height="40" as="geometry" />
        </mxCell>
        <mxCell id="nGkiocJGrpNyFu5htgxb-56" value="" style="rhombus;whiteSpace=wrap;html=1;fillColor=none;" vertex="1" parent="1">
          <mxGeometry x="730" y="730" width="70" height="40" as="geometry" />
        </mxCell>
      </root>
    </mxGraphModel>
  </diagram>
</mxfile>
